# xmcd
#
# Track frame offsets:
# 150
# 17403
# 25285
# 31161
# 41006
# 52071
# 62828
# 75954
# 93663
# 111148
# 123009
# 138674
# 149313
# 162219
# 175867
# 192208
# 204358
# 222798
# 234823
# 250325
#
# Disc length: 3569 seconds
#
#
# Revision: 1
# Processed by: cddbd v1.5.2PL0 Copyright (c) Steve Scherf et al.
# Submitted via: FreeRIP 2.945 
#
DISCID=080def14
DTITLE=Γιώργος Νταλάρας - Αφιέρωμα στον Βασίλη Τιτσάνη [CD2) - Αφιέρωμα στον Βασίλη Τιτσάνη [CD2)
DYEAR=2003
DGENRE=Ρεμπέτικα
TTITLE0=Τα καβουράκια - Παιδική χορωδία -Ανδρεάτος-Δρακιά
TTITLE1=Όταν στα κέντρα σε πηγαίνω - Γιώργος Νταλάρας
TTITLE2=Σερσε λα φαμ - Γεράσιμος Ανδρεάτος
TTITLE3=Χωρίσαμε ένα δειλινό - Γεράσιμος Ανδρεάτος
TTITLE4=Τ'αλάνια - Γιώτα Δρακιά
TTITLE5=Όταν συμβεί στα πέριξ - Γιώργος Νταλάρας
TTITLE6=Το σκαλοπάτι σου - Γιώργος Νταλάρας
TTITLE7=Μεσ' την πολύ σκοτούρα μου - Γιώργος Νταλάρας
TTITLE8=Τα ξένα χέρια - Ελένη Τσαλιγοπούλου
TTITLE9=Αντιλαλούνε τα βουνά - Γιώργος Νταλάρας
TTITLE10=Αργοσβήνεις μόνη - Ελένη Τσαλιγοπούλου, Γιώργος Νταλάρας
TTITLE11=Μην απελπίζεσαι - Γιώργος Νταλάρας
TTITLE12=Τα λιμάνια - Ελένη Τσαλιγοπούλου
TTITLE13=Με παρέσυρε το ρεύμα - Γεράσιμος Ανδρεάτος
TTITLE14=Το 'ξερα πως θα μου φύγεις - Γιώργος Νταλάρας-Γεράσιμος Ανδρεάτος
TTITLE15=’σπρο πουκάμισο - Γιώργος Νταλάρας
TTITLE16=Στο Τουνέζι στην Μπαρμπαριά - Γιώργος Νταλάρας-Γεράσιμος Ανδρεάτος /
TTITLE17=Ξημερώνει και βραδυάζει - Γιώργος Νταλάρας
TTITLE18=Η αχάριστη - Γιώργος Νταλάρας
TTITLE19=Συννεφιασμένη Κυριακή - Γιώργος Νταλάρας
EXTD=
EXTT0=
EXTT1=
EXTT2=
EXTT3=
EXTT4=
EXTT5=
EXTT6=
EXTT7=
EXTT8=
EXTT9=
EXTT10=
EXTT11=
EXTT12=
EXTT13=
EXTT14=
EXTT15=
EXTT16=
EXTT17=
EXTT18=
EXTT19=
PLAYORDER=
